<svg id="Layer_1" data-name="Layer 1" xmlns="http://www.w3.org/2000/svg" viewBox="0 0 1366 768"><defs><style>.cls-1{fill:#550045;}.cls-2,.cls-3{fill:#f1c27d;}.cls-2,.cls-5{stroke:#8c6239;}.cls-12,.cls-13,.cls-14,.cls-2,.cls-5{stroke-miterlimit:10;}.cls-4{fill:#8c6239;}.cls-6{fill:#f5ffff;}.cls-7{fill:#ff5015;}.cls-8{fill:#ffaad2;}.cls-9{fill:#6d5fff;}.cls-10{fill:#ff559c;}.cls-11{font-size:12.06px;font-family:MyriadPro-Regular, Myriad Pro;}.cls-12{fill:#9a4493;stroke:#662d91;}.cls-13{fill:#999;stroke-width:0.25px;}.cls-13,.cls-14{stroke:#000;}.cls-14{fill:#ccc;stroke-width:0.5px;}.cls-15{font-size:40px;fill:#00a99d;font-family:TrebuchetMS, Trebuchet MS;}</style></defs><path class="cls-1" d="M927,510c-2.25-11.3-7.82-12.82-9-25-1.12-11.57,3.33-16,4-26,.58-8.75-1.76-21.18-15-37l-22-22q-2-10.5-4-21-.5-11.5-1-23a53.22,53.22,0,0,0-15-23c-6.42-5.6-10.86-6.41-17-11s-13.87-12.9-19-29a89.26,89.26,0,0,0-9-32c-2.55-5.09-6.44-12.71-14-20-8.26-8-15.62-10.43-25-15a175.57,175.57,0,0,1-35.67-23.29c-3.6-4.65-14.29-17.12-30.81-18.86a36.29,36.29,0,0,0-8.16.06L684.54,179l-14,.82a31.16,31.16,0,0,1-10.13,4.9c-9.48,2.57-13.68-1.46-24,.63-6.91,1.4-12.22,4.38-14,6l-14.62,13A23.89,23.89,0,0,1,596.26,210l-30.72,5.78c-10.18,1.91-18.09,10.36-19.74,21.06l-2.57,16.66a25.92,25.92,0,0,1-7.18,14.36l-23.31,23.46a26.28,26.28,0,0,0-7.25,22h0A26,26,0,0,1,493.74,339l-2.86,1.76a25.85,25.85,0,0,0-12,23c.29,7.59.28,15.58-.88,17.36s-11.27,8.67-21.19,15.19c-9.43,6.19-13.34,18.25-10.13,29.42a6.85,6.85,0,0,1,.31,2c-.1,3.19-7.44,18.52-13.12,29.94a26.64,26.64,0,0,0,.43,24.46,61.74,61.74,0,0,1,4.45,9.74c1.1,3.41-3.48,10.15-9.17,16.82a26.44,26.44,0,0,0,2.24,36.42l10.59,9.56a23.93,23.93,0,0,0,3.17,2.42l22.7,14.59a23.73,23.73,0,0,0,9.2,3.49l29.37,4.49a22.74,22.74,0,0,0,6.22.11c6.78-.79,22.42-2.66,24.54-3.12s18-3.62,26.38-5.29a23.1,23.1,0,0,1,10.23.26c14.3,3.61,54.3,13.21,57,8.52,3.37-5.73,47.79-9.84,60.25-11.06,10.83-1,60.4-4.88,73.3-5.88a23.38,23.38,0,0,1,6,.32c6.78,1.27,23.31,4.18,28.23,3.53,5.45-.71,32.38,5.46,39,7a23.59,23.59,0,0,0,3.12.51c5.5.52,23.27,2,27.21.66,2.7-.94,4.1-2,6.46-2.8a24.19,24.19,0,0,1,7.56-1.29c5.1-.29,22.79-5.8,34.52-22.08C918.9,546.36,930.84,529.29,927,510Z"/><path class="cls-1" d="M909,527.16v0Z"/><path class="cls-2" d="M789.5,539.5a539.61,539.61,0,0,0-80.87-40.95,220.73,220.73,0,0,1-1.25-69.3c-10.28,3.9-20.66,6.15-30.42,6a101,101,0,0,1-25.4-3.65q-3.63-1-7.18-2.21l-1.2-.42a262.32,262.32,0,0,1,1.1,70h-.09c-22.57,10.32-46.24,22.08-70.69,35.5-33.65,18.47-64,37.45-91,56H859A539.38,539.38,0,0,0,789.5,539.5Z"/><path class="cls-3" d="M677.42,465a47.23,47.23,0,0,1-20.2-5.36c-1.9-.95-3.82-2.05-5.72-3.25-11.17-7.1-62.24-59.3-59.32-113.52.41-7.66,1.27-23.61,10.69-29.88a22.71,22.71,0,0,1,4-2,17.17,17.17,0,0,0,7-4.63,23.53,23.53,0,0,0,4.62-8c1-2.67,1.94-5,4.62-6.6,1.3-.79,4.54-1.08,9.92-1.56,4.24-.39,6.57-.43,8.45-.47a50.86,50.86,0,0,0,5.59-.35c5.28-.63,10.28-1.23,15.76-4.15a27.71,27.71,0,0,0,6.27-4.55,12.26,12.26,0,0,1,6.08-3.58,15.85,15.85,0,0,1,3.72-.44,22.75,22.75,0,0,1,6.92,1.25,18.32,18.32,0,0,1,7.74,4.56,28.74,28.74,0,0,0,6.21,4.4,20.14,20.14,0,0,0,9.92,2.43,31.4,31.4,0,0,1,11.94,2.5,22.61,22.61,0,0,1,4.57,2.33,61.35,61.35,0,0,0,7.88,4.2c1.6.75,3,1.36,4.21,1.89,4.21,1.86,6.33,2.79,8.48,5.35a9.45,9.45,0,0,1,2,4,43.29,43.29,0,0,0,2.17,5.68,53.55,53.55,0,0,0,5.66,9.57c2,2.83,3.59,5.05,4.56,9.21a48.24,48.24,0,0,1,.64,8c0,22.33-10.83,52.62-28.25,79.07C715.49,448.62,694.7,465,678,465Z"/><path class="cls-4" d="M678.91,277.17a22.48,22.48,0,0,1,6.78,1.23,18.08,18.08,0,0,1,7.55,4.45,29.25,29.25,0,0,0,6.31,4.48,20.82,20.82,0,0,0,10.13,2.48,31,31,0,0,1,11.78,2.46,23.5,23.5,0,0,1,4.49,2.29,60.57,60.57,0,0,0,7.93,4.23c1.6.75,3,1.36,4.22,1.9,4.14,1.83,6.22,2.75,8.29,5.21a8.86,8.86,0,0,1,2,3.84,43.26,43.26,0,0,0,2.18,5.74,54.25,54.25,0,0,0,5.72,9.65c2,2.78,3.52,5,4.46,9a46.74,46.74,0,0,1,.64,7.94c0,22.23-10.79,52.43-28.17,78.79-18,27.36-38.65,43.69-55.19,43.69h-.56a46.82,46.82,0,0,1-20-5.3c-1.89-1-3.8-2-5.68-3.23-11.13-7.07-62-59.06-59.09-113.07.41-7.59,1.26-23.37,10.47-29.49a21.51,21.51,0,0,1,3.9-1.95,17.5,17.5,0,0,0,7.2-4.75,23.85,23.85,0,0,0,4.72-8.19c1-2.69,1.88-4.82,4.41-6.35,1.2-.73,4.4-1,9.7-1.49,4.23-.39,6.55-.43,8.42-.47a50.66,50.66,0,0,0,5.64-.36c5.33-.63,10.37-1.23,15.93-4.19a28.58,28.58,0,0,0,6.37-4.63c1.76-1.61,3-2.78,5.87-3.46a15.36,15.36,0,0,1,3.6-.43m0-1a16,16,0,0,0-3.84.46c-5.62,1.36-5.79,4.62-12.47,8.17-5.39,2.88-10.41,3.47-15.58,4.09-4.87.58-5.85.08-14,.82-5.82.52-8.76.8-10.13,1.63-5.29,3.21-3.93,8.8-9.35,14.72-4,4.32-7.12,4-10.91,6.55-9.63,6.4-10.5,22.45-10.92,30.26-2.94,54.6,48.16,106.74,59.55,114,1.9,1.21,3.83,2.3,5.77,3.28a47.66,47.66,0,0,0,20.4,5.41H678c36.94,0,84.36-76.54,84.36-123.48a47.45,47.45,0,0,0-.66-8.13c-1.8-7.74-5.71-9-10.25-18.87-2.81-6.13-1.91-7-4.28-9.8-2.87-3.41-5.76-4.07-12.86-7.37-8.79-4.1-7.35-4.5-12.47-6.55-11.35-4.53-13.51-.59-21.82-4.9-6.62-3.44-6.9-6.8-14-9a23.53,23.53,0,0,0-7.07-1.27Z"/><path class="cls-5" d="M679,364.26s-9.38.25-5.07.26"/><path d="M672.77,361.49c0-1-.13-2-.27-3a29.71,29.71,0,0,0-6-15c-9.77-12.18-27.25-11.36-35-11-5.73.27-16.12.89-26,8-3.56,2.56-11.14,8-13,17.5a25.73,25.73,0,0,0,1,12.5c3.93,12.85,18.14,32.32,40,32,17.56-.25,28.46-13.11,30-15S673.42,375.39,672.77,361.49Zm-10.66,24.63c-1.47,1.78-11.87,13.93-28.63,14.17-20.87.3-34.43-18.09-38.19-30.23a24.13,24.13,0,0,1-.95-11.81c1.77-9,9-14.12,12.41-16.54,9.43-6.72,19.34-7.3,24.82-7.56,7.39-.34,24.08-1.11,33.41,10.4a27.81,27.81,0,0,1,5.72,14.17C672.73,373.29,663.74,384.15,662.11,386.12Z"/><path class="cls-6" d="M665,344.55c-9.33-11.51-26-10.74-33.41-10.4-5.48.26-15.39.84-24.82,7.56-3.4,2.42-10.64,7.58-12.41,16.54a24.13,24.13,0,0,0,.95,11.81c3.76,12.14,17.32,30.53,38.19,30.23,16.76-.24,27.16-12.39,28.63-14.17,1.63-2,10.62-12.83,8.59-27.4A27.81,27.81,0,0,0,665,344.55Z"/><path d="M759.47,357.79c-1.86-9.48-9.44-14.94-13-17.5-9.88-7.11-20.27-7.73-26-8-7.75-.36-25.23-1.17-35,11a29.71,29.71,0,0,0-6,15c-2.13,15.42,7.29,26.92,9,29,1.54,1.89,12.44,14.75,30,15,21.86.32,36.07-19.15,40-32A25.73,25.73,0,0,0,759.47,357.79Zm-2.75,12.3c-3.75,12.14-17.32,30.54-38.18,30.24-16.76-.24-27.16-12.39-28.64-14.17-1.62-2-10.61-12.83-8.59-27.4A28,28,0,0,1,687,344.58c9.33-11.5,26-10.73,33.41-10.39,5.47.25,15.39.84,24.82,7.56,3.4,2.42,10.63,7.58,12.41,16.53A24.19,24.19,0,0,1,756.72,370.09Z"/><path class="cls-6" d="M745.27,341.75c-9.43-6.72-19.35-7.31-24.82-7.56-7.4-.34-24.08-1.11-33.41,10.39a28,28,0,0,0-5.73,14.18c-2,14.57,7,25.43,8.59,27.4,1.48,1.78,11.88,13.93,28.64,14.17,20.86.3,34.43-18.1,38.18-30.24a24.19,24.19,0,0,0,1-11.81C755.9,349.33,748.67,344.17,745.27,341.75Z"/><ellipse class="cls-7" cx="652.62" cy="493" rx="7.92" ry="7.07"/><path class="cls-8" d="M675.93,494.5a7.74,7.74,0,0,0-7.75-5.63c-4.37,0-7.92,3.16-7.92,7.06s3.55,7.07,7.92,7.07a7.75,7.75,0,0,0,7.75-5.63,6.91,6.91,0,0,1-.16-1.44A6.74,6.74,0,0,1,675.93,494.5Z"/><path class="cls-9" d="M690.24,493a7.2,7.2,0,0,1,.16-.78,8.15,8.15,0,0,0-6.71-3.33,7.76,7.76,0,0,0-7.76,5.63,6.74,6.74,0,0,0-.16,1.43,6.91,6.91,0,0,0,.16,1.44,8.16,8.16,0,0,0,15.43.26A6.45,6.45,0,0,1,690.24,493Z"/><path class="cls-10" d="M699.11,486.92c-4-.49-7.76,1.84-8.71,5.28a7.2,7.2,0,0,0-.16.78,6.45,6.45,0,0,0,1.12,4.65,8.07,8.07,0,0,0,5.7,3.3c4.34.52,8.31-2.2,8.87-6.07S703.44,487.44,699.11,486.92Z"/><text class="cls-11" transform="translate(649.54 497.72) scale(1.1 1)">S</text><text class="cls-11" transform="translate(679.78 499.62) scale(1.1 1)">R</text><text class="cls-11" transform="translate(663.19 499.45) scale(1.1 1)">A</text><text class="cls-11" transform="translate(694.46 498.03) scale(1.1 1)">E</text><path class="cls-12" d="M805.74,341.65c-6.26-11.27-16.83-18.3-26.94-22.43-.38-3.85-.95-7.93-1.8-12.22a126.38,126.38,0,0,0-11-32,112.16,112.16,0,0,0-24-28l-21-12q-7.12-2.1-15-4-7.25-1.73-14-3l-15-2H657c-4.93.68-10.3,1.64-16,3a168.39,168.39,0,0,0-17,5,65.72,65.72,0,0,0-25,20l-12,14q-3,4.77-6,10c-2.55,4.45-4.87,8.79-7,13a57.08,57.08,0,0,0-5.17,30.38h0C560.8,325.93,553,332.64,548,342c-12.4,23.14-3,53.34,15,67,16.31,12.35,38.68,10.38,41.7,7.77,0,0,.57-.49,1.24-1.12,2.93-2.74,4.55-4.25,5.06-5.65.85-2.32-1.46-4-5-10a76,76,0,0,1-6-13,94.37,94.37,0,0,1-3-10c-2.92-11.22-4.41-16.82-5-21-1-7.38-2.07-14.61,0-23,2.92-11.87,9.49-15.76,8-18s-9.58-2.05-19.34,1.15A60.92,60.92,0,0,1,587,294a88.22,88.22,0,0,1,22-31,72.87,72.87,0,0,1,26-19,119.79,119.79,0,0,1,30-6,137.21,137.21,0,0,1,32,2c4.15,1.45,8.5,3.1,13,5,5.4,2.28,10.4,4.64,15,7l11,8a88.15,88.15,0,0,1,22,29c1.46,1.91,5.63,7.64,7,14,.14.65.43,3.76,1,10a8.77,8.77,0,0,1,0,2c0,.1,0,.2-.06.3-7.64-1.57-13.34-1.38-13.94-.3a3.47,3.47,0,0,0,0,2c.43,1.6,1.7,2,3,4a12,12,0,0,1,1,2c1.6,3.66,4.33,8.62,5,10,2.72,5.6,1.43,13.87,0,23a136.13,136.13,0,0,1-5,20c-1.28,4.17-1.92,6.26-3,9-5.64,14.38-12.69,20.61-10.26,24.65a37.34,37.34,0,0,0,5.06,5.65c.67.62,1.19,1.08,1.24,1.12,3,2.61,25.39,4.58,41.7-7.77C809.09,394.76,818.16,364,805.74,341.65Z"/><polygon class="cls-13" points="875.88 518 465 518 465 768 880 768 875.88 518"/><ellipse class="cls-14" cx="663.41" cy="647.65" rx="15.2" ry="15.95"/><text class="cls-15" transform="translate(610.56 379.41)">CS</text><text class="cls-15" transform="translate(698.86 379.58)">IM</text></svg>